# xmcd
#
# Track frame offsets:
#	150
#	13686
#	25563
#	35303
#	45704
#	56129
#	70160
#	85050
#	97194
#	112885
#	124651
#	133598
#
# Disc length: 1963 seconds
#
# Revision: 0
# Processed by: cddbd v1.5.2PL0 Copyright (c) Steve Scherf et al.
# Submitted via: EZCDAudioConverter 7.0.6.1
#
DISCID=9707a90c
DTITLE=Friends - Fragile
DYEAR=1900
DGENRE=
TTITLE0=You Need Friends
TTITLE1=A Tale Of Your Life
TTITLE2=Summer Sunday Blues
TTITLE3=One Sweet Day
TTITLE4=Memories
TTITLE5=Lonely Road
TTITLE6=Morning
TTITLE7=Come Inside
TTITLE8=Take A Walk
TTITLE9=River Song
TTITLE10=Once In A Winter Town
TTITLE11=Time To Run
EXTD=
EXTT0=
EXTT1=
EXTT2=
EXTT3=
EXTT4=
EXTT5=
EXTT6=
EXTT7=
EXTT8=
EXTT9=
EXTT10=
EXTT11=
PLAYORDER=
